<svg id="Layer_1" data-name="Layer 1" xmlns="http://www.w3.org/2000/svg" viewBox="0 0 523.75 497.93"><defs><style>.cls-1{fill:#ffb544;}.cls-2{fill:#ffae46;stroke:#ffae46;stroke-miterlimit:10;}.cls-3{fill:#6b99d2;}</style></defs><g id="_15" data-name="15"><path class="cls-1" d="M595.85,484.39A115.1,115.1,0,1,1,480.68,369.22,114.55,114.55,0,0,1,595.85,484.39Z" transform="translate(-238.02 -250.59)"/><path class="cls-2" d="M480.68,354.45h0a3,3,0,0,1-3-2.95V254a3,3,0,0,1,3-2.95h0a3,3,0,0,1,2.95,2.95V351.5A3,3,0,0,1,480.68,354.45Z" transform="translate(-238.02 -250.59)"/><path class="cls-2" d="M426.29,360.2h0a3,3,0,0,1-4-1.37l-22.48-46.37a3,3,0,0,1,1.38-4h0a3,3,0,0,1,4,1.37l22.47,46.37A3,3,0,0,1,426.29,360.2Z" transform="translate(-238.02 -250.59)"/><path class="cls-2" d="M562.14,667.34h0a3,3,0,0,1-4-1.38L535.7,619.59a3,3,0,0,1,1.37-4h0a3,3,0,0,1,4,1.37l22.48,46.37A3,3,0,0,1,562.14,667.34Z" transform="translate(-238.02 -250.59)"/><path class="cls-2" d="M529.87,358.44h0a3,3,0,0,1-1.83-3.77L544.93,306a3,3,0,0,1,3.78-1.82h0a3,3,0,0,1,1.83,3.77l-16.9,48.68A3,3,0,0,1,529.87,358.44Z" transform="translate(-238.02 -250.59)"/><path class="cls-2" d="M408.75,671.68h0a3,3,0,0,1-1.83-3.78l16.9-48.68a3,3,0,0,1,3.77-1.83h0a3,3,0,0,1,1.83,3.77l-16.9,48.69A3,3,0,0,1,408.75,671.68Z" transform="translate(-238.02 -250.59)"/><path class="cls-2" d="M609.39,429.57h0a3,3,0,0,1,1.38-4l46.37-22.48a3,3,0,0,1,4,1.38h0a3,3,0,0,1-1.37,4l-46.37,22.47A3,3,0,0,1,609.39,429.57Z" transform="translate(-238.02 -250.59)"/><path class="cls-2" d="M302.26,565.42h0a3,3,0,0,1,1.38-4L350,539a3,3,0,0,1,4,1.37h0a3,3,0,0,1-1.38,4l-46.37,22.47A3,3,0,0,1,302.26,565.42Z" transform="translate(-238.02 -250.59)"/><path class="cls-2" d="M611.16,539.05h0a3,3,0,0,1,3.77-1.83l48.68,16.9a3,3,0,0,1,1.83,3.77h0a3,3,0,0,1-3.77,1.83L613,542.83A3,3,0,0,1,611.16,539.05Z" transform="translate(-238.02 -250.59)"/><path class="cls-2" d="M297.92,417.94h0a3,3,0,0,1,3.78-1.83L350.38,433a3,3,0,0,1,1.83,3.78h0a3,3,0,0,1-3.78,1.83l-48.68-16.9A3,3,0,0,1,297.92,417.94Z" transform="translate(-238.02 -250.59)"/><path class="cls-2" d="M483.63,729.51h0a3,3,0,0,1-2.95-3V629.1a3,3,0,0,1,2.95-3h0a3,3,0,0,1,2.95,3v97.46A3,3,0,0,1,483.63,729.51Z" transform="translate(-238.02 -250.59)"/><path class="cls-2" d="M613.57,484.39h0a3,3,0,0,1,3-2.95H714a3,3,0,0,1,2.95,2.95h0a3,3,0,0,1-2.95,3H616.53A3,3,0,0,1,613.57,484.39Z" transform="translate(-238.02 -250.59)"/><path class="cls-2" d="M238.52,487.35h0a3,3,0,0,1,2.95-3h97.45a3,3,0,0,1,3,3h0a3,3,0,0,1-3,2.95H241.47A3,3,0,0,1,238.52,487.35Z" transform="translate(-238.02 -250.59)"/><path class="cls-2" d="M577.78,583.84h0a3,3,0,0,1,4.18,0l68.91,68.91a3,3,0,0,1,0,4.18h0a3,3,0,0,1-4.18,0L577.78,588A3,3,0,0,1,577.78,583.84Z" transform="translate(-238.02 -250.59)"/><path class="cls-2" d="M310.49,320.72h0a3,3,0,0,1,4.17,0l68.92,68.91a3,3,0,0,1,0,4.18h0a3,3,0,0,1-4.18,0L310.49,324.9A3,3,0,0,1,310.49,320.72Z" transform="translate(-238.02 -250.59)"/><path class="cls-2" d="M382.71,583h0a3,3,0,0,1,0,4.18L313.8,656.06a3,3,0,0,1-4.18,0h0a3,3,0,0,1,0-4.18L378.53,583A3,3,0,0,1,382.71,583Z" transform="translate(-238.02 -250.59)"/><path class="cls-2" d="M645.83,315.68h0a3,3,0,0,1,0,4.18l-68.91,68.91a3,3,0,0,1-4.18,0h0a3,3,0,0,1,0-4.18l68.91-68.91A3,3,0,0,1,645.83,315.68Z" transform="translate(-238.02 -250.59)"/><path class="cls-3" d="M386.37,636.58h1.7a69.62,69.62,0,0,1,111-74.05A90.09,90.09,0,0,1,675.46,599.2a75.08,75.08,0,0,1,47.69,139.87,55.53,55.53,0,0,1-31,9.45H386.37a56.13,56.13,0,0,1-56-56h0A56.13,56.13,0,0,1,386.37,636.58Z" transform="translate(-238.02 -250.59)"/></g></svg>