<svg id="Layer_1" data-name="Layer 1" xmlns="http://www.w3.org/2000/svg" viewBox="0 0 837.48 430.45"><defs><style>.cls-1{fill:#26477a;}.cls-2{fill:#6b99d2;}</style></defs><path class="cls-1" d="M857,88.65h-.71a29.19,29.19,0,0,0-46.53-31A37.76,37.76,0,0,0,735.84,73a31.47,31.47,0,0,0-20,58.63,23.27,23.27,0,0,0,13,4H857a23.53,23.53,0,0,0,23.46-23.46h0A23.53,23.53,0,0,0,857,88.65Z" transform="translate(-43 -28)"/><path class="cls-1" d="M701.66,401.76h-.86a35.28,35.28,0,0,0-33.71-45.62,35.09,35.09,0,0,0-22.5,8.12,45.62,45.62,0,0,0-89.33,18.57,38,38,0,0,0-24.15,70.83,28.11,28.11,0,0,0,15.7,4.79H701.66A28.43,28.43,0,0,0,730,430.11h0A28.43,28.43,0,0,0,701.66,401.76Z" transform="translate(-43 -28)"/><path class="cls-1" d="M399,179.53h.71a29.22,29.22,0,0,1,27.9-37.77,29,29,0,0,1,18.63,6.73,37.76,37.76,0,0,1,74.64,8.15,38.18,38.18,0,0,1-.7,7.22,31.47,31.47,0,0,1,20,58.62,23.28,23.28,0,0,1-13,4H399A23.53,23.53,0,0,1,375.56,203h0A23.53,23.53,0,0,1,399,179.53Z" transform="translate(-43 -28)"/><path class="cls-1" d="M129,346.51h.65a26.71,26.71,0,0,1,42.58-28.41,34.56,34.56,0,0,1,68.31,7.46,35.11,35.11,0,0,1-.64,6.61,28.8,28.8,0,0,1,18.29,53.65,21.26,21.26,0,0,1-11.89,3.63H129A21.53,21.53,0,0,1,107.56,368h0A21.53,21.53,0,0,1,129,346.51Z" transform="translate(-43 -28)"/><path class="cls-2" d="M390.37,376.8h.92A37.44,37.44,0,0,1,451,337a48.44,48.44,0,0,1,94.84,19.72,40.37,40.37,0,0,1,25.64,75.2A29.9,29.9,0,0,1,554.77,437H390.37a30.18,30.18,0,0,1-30.09-30.09h0A30.18,30.18,0,0,1,390.37,376.8Z" transform="translate(-43 -28)"/><path class="cls-2" d="M231.69,124.73h-.86A35,35,0,0,0,175,87.51a45.28,45.28,0,0,0-88.66,18.43,37.74,37.74,0,0,0-24,70.3A27.87,27.87,0,0,0,78,181h153.7a28.21,28.21,0,0,0,28.13-28.13h0A28.21,28.21,0,0,0,231.69,124.73Z" transform="translate(-43 -28)"/><path class="cls-2" d="M738.29,123h-.45a18.3,18.3,0,0,0-29.18-19.47,23.69,23.69,0,0,0-46.82,5.11,24.16,24.16,0,0,0,.44,4.53,20.48,20.48,0,0,0-2.95-.22,19.74,19.74,0,0,0-9.59,37,14.58,14.58,0,0,0,8.15,2.49h80.4A14.76,14.76,0,0,0,753,137.66h0A14.75,14.75,0,0,0,738.29,123Z" transform="translate(-43 -28)"/><path class="cls-2" d="M145,382.19h-.45a18.08,18.08,0,0,0,.81-5.39,18.3,18.3,0,0,0-30-14.08,23.68,23.68,0,0,0-46.81,5.11,24.16,24.16,0,0,0,.43,4.53,20.38,20.38,0,0,0-3-.22,19.74,19.74,0,0,0-9.58,37,14.55,14.55,0,0,0,8.15,2.49H145A14.76,14.76,0,0,0,159.7,396.9h0A14.75,14.75,0,0,0,145,382.19Z" transform="translate(-43 -28)"/></svg>