<svg id="Layer_1" data-name="Layer 1" xmlns="http://www.w3.org/2000/svg" viewBox="0 0 538.62 465.75"><defs><style>.cls-1{fill:#6b99d2;}.cls-2{fill:#26477a;}.cls-3{fill:#ffb544;}</style></defs><path class="cls-1" d="M485.2,467.15h1.29a52.67,52.67,0,0,1,84-56,68.16,68.16,0,0,1,133.45,27.75A56.8,56.8,0,0,1,740,544.68a42,42,0,0,1-23.46,7.15H485.2a42.46,42.46,0,0,1-42.34-42.34h0A42.46,42.46,0,0,1,485.2,467.15Z" transform="translate(-230.58 -266.68)"/><path class="cls-2" d="M678.9,732.43a65.14,65.14,0,0,0,65-64.95h0a65.14,65.14,0,0,0-65-65h-2a80.8,80.8,0,0,0-128.82-85.95A104.55,104.55,0,0,0,343.4,559.14a88.67,88.67,0,0,0-13-1,87.13,87.13,0,0,0-42.32,163.29,64.51,64.51,0,0,0,36,11" transform="translate(-230.58 -266.68)"/><path class="cls-2" d="M498.3,334.21a6.34,6.34,0,1,1,6.34-6.34A6.34,6.34,0,0,1,498.3,334.21Z" transform="translate(-230.58 -266.68)"/><circle class="cls-2" cx="423.38" cy="6.34" r="6.34"/><path class="cls-2" d="M335,297.71a6.34,6.34,0,1,1,6.34-6.34A6.33,6.33,0,0,1,335,297.71Z" transform="translate(-230.58 -266.68)"/><path class="cls-2" d="M737.51,399.75a6.34,6.34,0,1,1,6.34-6.33A6.33,6.33,0,0,1,737.51,399.75Z" transform="translate(-230.58 -266.68)"/><path class="cls-2" d="M236.92,481.68a6.34,6.34,0,1,1,6.33-6.33A6.33,6.33,0,0,1,236.92,481.68Z" transform="translate(-230.58 -266.68)"/><path class="cls-3" d="M489.66,556.48A124.41,124.41,0,1,1,460.54,343a107.77,107.77,0,1,0,29.12,213.46Z" transform="translate(-230.58 -266.68)"/></svg>