<svg id="Layer_1" data-name="Layer 1" xmlns="http://www.w3.org/2000/svg" viewBox="0 0 544.95 522.79"><defs><style>.cls-1{fill:#b4e3fb;}.cls-2,.cls-4{fill:#6b99d2;}.cls-3{fill:#26477a;}.cls-4{stroke:#6b99d2;stroke-miterlimit:10;}</style></defs><g id="_4" data-name="4"><path class="cls-1" d="M442.86,636.42h0a4.78,4.78,0,0,1-1.74-6.5l30.1-52.13a4.77,4.77,0,0,1,6.49-1.74h0a4.77,4.77,0,0,1,1.74,6.49l-30.1,52.14A4.78,4.78,0,0,1,442.86,636.42Z" transform="translate(-227.41 -237.82)"/><path class="cls-1" d="M528.4,747.31h0a4.78,4.78,0,0,1-1.74-6.5l30.1-52.13a4.78,4.78,0,0,1,6.5-1.74h0a4.78,4.78,0,0,1,1.74,6.49l-30.1,52.14A4.78,4.78,0,0,1,528.4,747.31Z" transform="translate(-227.41 -237.82)"/><path class="cls-1" d="M335.14,760h0a4.76,4.76,0,0,1-1.74-6.49l30.1-52.13a4.75,4.75,0,0,1,6.49-1.74h0a4.77,4.77,0,0,1,1.74,6.49l-30.1,52.13A4.77,4.77,0,0,1,335.14,760Z" transform="translate(-227.41 -237.82)"/><path class="cls-2" d="M338.3,650.59h0a4.77,4.77,0,0,1-4.75-4.75v-60.2a4.76,4.76,0,0,1,4.75-4.75h0a4.76,4.76,0,0,1,4.76,4.75v60.2A4.77,4.77,0,0,1,338.3,650.59Z" transform="translate(-227.41 -237.82)"/><path class="cls-2" d="M303.45,615.74h0A4.76,4.76,0,0,1,308.2,611h60.2a4.76,4.76,0,0,1,4.76,4.75h0a4.77,4.77,0,0,1-4.76,4.75H308.2A4.77,4.77,0,0,1,303.45,615.74Z" transform="translate(-227.41 -237.82)"/><path class="cls-2" d="M313.66,640.38h0a4.76,4.76,0,0,1,0-6.72l42.57-42.57a4.78,4.78,0,0,1,6.72,0h0a4.77,4.77,0,0,1,0,6.73l-42.57,42.56A4.76,4.76,0,0,1,313.66,640.38Z" transform="translate(-227.41 -237.82)"/><path class="cls-2" d="M313.66,591.09h0a4.78,4.78,0,0,1,6.72,0L363,633.66a4.76,4.76,0,0,1,0,6.72h0a4.76,4.76,0,0,1-6.72,0l-42.57-42.56A4.77,4.77,0,0,1,313.66,591.09Z" transform="translate(-227.41 -237.82)"/><path class="cls-2" d="M626.62,669.6h0a4.77,4.77,0,0,1-4.75-4.75v-60.2a4.76,4.76,0,0,1,4.75-4.75h0a4.75,4.75,0,0,1,4.75,4.75v60.2A4.76,4.76,0,0,1,626.62,669.6Z" transform="translate(-227.41 -237.82)"/><path class="cls-2" d="M591.77,634.75h0a4.76,4.76,0,0,1,4.75-4.75h60.2a4.75,4.75,0,0,1,4.75,4.75h0a4.76,4.76,0,0,1-4.75,4.75h-60.2A4.77,4.77,0,0,1,591.77,634.75Z" transform="translate(-227.41 -237.82)"/><path class="cls-2" d="M602,659.39h0a4.76,4.76,0,0,1,0-6.72l42.57-42.57a4.78,4.78,0,0,1,6.72,0h0a4.79,4.79,0,0,1,0,6.73L608.7,659.39A4.76,4.76,0,0,1,602,659.39Z" transform="translate(-227.41 -237.82)"/><path class="cls-2" d="M602,610.1h0a4.78,4.78,0,0,1,6.72,0l42.57,42.57a4.78,4.78,0,0,1,0,6.72h0a4.76,4.76,0,0,1-6.72,0L602,616.83A4.77,4.77,0,0,1,602,610.1Z" transform="translate(-227.41 -237.82)"/><path class="cls-2" d="M458.7,726.63h0a3,3,0,0,1-3-3V685.3a3,3,0,0,1,3-3h0a3,3,0,0,1,3,3v38.31A3,3,0,0,1,458.7,726.63Z" transform="translate(-227.41 -237.82)"/><path class="cls-2" d="M436.52,704.45h0a3,3,0,0,1,3-3h38.3a3,3,0,0,1,3,3h0a3,3,0,0,1-3,3h-38.3A3,3,0,0,1,436.52,704.45Z" transform="translate(-227.41 -237.82)"/><path class="cls-2" d="M443,720.13h0a3,3,0,0,1,0-4.27l27.09-27.09a3,3,0,0,1,4.27,0h0a3,3,0,0,1,0,4.28L447.3,720.13A3,3,0,0,1,443,720.13Z" transform="translate(-227.41 -237.82)"/><path class="cls-2" d="M443,688.77h0a3,3,0,0,1,4.28,0l27.08,27.09a3,3,0,0,1,0,4.27h0a3,3,0,0,1-4.27,0L443,693.05A3,3,0,0,1,443,688.77Z" transform="translate(-227.41 -237.82)"/><path class="cls-3" d="M663.06,425.64h-2A80.79,80.79,0,0,0,532.27,339.7a104.55,104.55,0,0,0-204.71,42.55,88.67,88.67,0,0,0-13-1,87.13,87.13,0,0,0-42.32,163.29,64.5,64.5,0,0,0,36,11H663.06a65.14,65.14,0,0,0,65-64.95h0A65.14,65.14,0,0,0,663.06,425.64Z" transform="translate(-227.41 -237.82)"/><path class="cls-2" d="M488.37,347.29h1.29a52.67,52.67,0,0,1,84-56A68.16,68.16,0,0,1,707.08,319a56.8,56.8,0,0,1,36.08,105.81A42,42,0,0,1,719.7,432H488.37A42.46,42.46,0,0,1,446,389.63h0A42.47,42.47,0,0,1,488.37,347.29Z" transform="translate(-227.41 -237.82)"/><path class="cls-4" d="M535.93,622.22h0a.29.29,0,0,1-.29-.28V600a.29.29,0,0,1,.29-.29h0a.29.29,0,0,1,.29.29v21.9A.29.29,0,0,1,535.93,622.22Z" transform="translate(-227.41 -237.82)"/><path class="cls-4" d="M524.69,611h0a.29.29,0,0,1,.29-.29h21.9a.29.29,0,0,1,.29.29h0a.29.29,0,0,1-.29.28H525A.29.29,0,0,1,524.69,611Z" transform="translate(-227.41 -237.82)"/><path class="cls-4" d="M528,618.93h0a.28.28,0,0,1,0-.41L543.47,603a.3.3,0,0,1,.41,0h0a.3.3,0,0,1,0,.41L528.4,618.93A.28.28,0,0,1,528,618.93Z" transform="translate(-227.41 -237.82)"/><path class="cls-4" d="M528,603h0a.3.3,0,0,1,.41,0l15.48,15.48a.3.3,0,0,1,0,.41h0a.28.28,0,0,1-.41,0L528,603.45A.28.28,0,0,1,528,603Z" transform="translate(-227.41 -237.82)"/><path class="cls-4" d="M303.45,706.19h0a.29.29,0,0,1-.29-.29V684a.29.29,0,0,1,.29-.29h0a.29.29,0,0,1,.29.29v21.9A.29.29,0,0,1,303.45,706.19Z" transform="translate(-227.41 -237.82)"/><path class="cls-4" d="M292.21,695h0a.29.29,0,0,1,.29-.29h21.9a.29.29,0,0,1,.29.29h0a.29.29,0,0,1-.29.29H292.5A.29.29,0,0,1,292.21,695Z" transform="translate(-227.41 -237.82)"/><path class="cls-4" d="M295.51,702.89h0a.28.28,0,0,1,0-.4L311,687a.3.3,0,0,1,.41,0h0a.3.3,0,0,1,0,.41l-15.49,15.48A.28.28,0,0,1,295.51,702.89Z" transform="translate(-227.41 -237.82)"/><path class="cls-4" d="M295.51,687h0a.3.3,0,0,1,.41,0l15.49,15.49a.28.28,0,0,1,0,.4h0a.28.28,0,0,1-.41,0l-15.49-15.48A.3.3,0,0,1,295.51,687Z" transform="translate(-227.41 -237.82)"/><path class="cls-4" d="M609.2,737.87h0a.29.29,0,0,1-.29-.29v-21.9a.29.29,0,0,1,.29-.29h0a.29.29,0,0,1,.29.29v21.9A.29.29,0,0,1,609.2,737.87Z" transform="translate(-227.41 -237.82)"/><path class="cls-4" d="M598,726.63h0a.29.29,0,0,1,.29-.29h21.9a.29.29,0,0,1,.29.29h0a.29.29,0,0,1-.29.29h-21.9A.29.29,0,0,1,598,726.63Z" transform="translate(-227.41 -237.82)"/><path class="cls-4" d="M601.26,734.58h0a.28.28,0,0,1,0-.41l15.48-15.49a.3.3,0,0,1,.41,0h0a.3.3,0,0,1,0,.41l-15.48,15.49A.3.3,0,0,1,601.26,734.58Z" transform="translate(-227.41 -237.82)"/><path class="cls-4" d="M601.26,718.68h0a.3.3,0,0,1,.41,0l15.48,15.49a.3.3,0,0,1,0,.41h0a.3.3,0,0,1-.41,0l-15.48-15.49A.28.28,0,0,1,601.26,718.68Z" transform="translate(-227.41 -237.82)"/></g></svg>