<svg id="Layer_1" data-name="Layer 1" xmlns="http://www.w3.org/2000/svg" viewBox="0 0 529.11 517.32"><defs><style>.cls-1{fill:#3571aa;}.cls-2{fill:#6b99d2;}.cls-3{fill:#26477a;}.cls-4{fill:#ffb544;}</style></defs><path class="cls-1" d="M451.12,609.55l-4.05,2.93-.09.06h0A21.18,21.18,0,1,0,482.45,631h0l.09-5.1.7-39.67Z" transform="translate(-235.33 -240.41)"/><path class="cls-1" d="M359.37,733.48,357,735.21l-.05,0h0a12.53,12.53,0,1,0,19.68,14.94,12.7,12.7,0,0,0,1.29-4h0l0-3,.41-23.46Z" transform="translate(-235.33 -240.41)"/><path class="cls-1" d="M479.77,714.47l-2.4,1.73-.05,0h0a12.52,12.52,0,1,0,21,10.93h0l.06-3,.41-23.46Z" transform="translate(-235.33 -240.41)"/><path class="cls-1" d="M660.36,609.91,658,611.65l-.05,0h0a12.77,12.77,0,0,0-2.54,3.36,12.53,12.53,0,0,0,22.22,11.58,12.4,12.4,0,0,0,1.29-4h0l.05-3,.41-23.45Z" transform="translate(-235.33 -240.41)"/><path class="cls-1" d="M286.5,590.9l-2.4,1.74-.05,0h0a12.53,12.53,0,1,0,21,10.94h0l0-3,.41-23.45Z" transform="translate(-235.33 -240.41)"/><path class="cls-2" d="M480.45,349.88h1.28a52.68,52.68,0,0,1,84-56A68.16,68.16,0,0,1,699.16,321.6a56.8,56.8,0,0,1,36.08,105.81,42,42,0,0,1-23.46,7.15H480.45a42.46,42.46,0,0,1-42.34-42.34h0A42.46,42.46,0,0,1,480.45,349.88Z" transform="translate(-235.33 -240.41)"/><path class="cls-3" d="M235.33,471a87.09,87.09,0,0,0,44.81,76.15,64.44,64.44,0,0,0,36,11H671a65.15,65.15,0,0,0,64.95-65h0A65.14,65.14,0,0,0,671,428.22h-2a80.8,80.8,0,0,0-128.82-85.94,104.55,104.55,0,0,0-204.71,42.56A87.18,87.18,0,0,0,235.33,471" transform="translate(-235.33 -240.41)"/><polygon class="cls-4" points="142.57 273.36 193.27 273.36 142.57 340.95 184.82 340.95 91.88 450.79 125.68 366.3 91.88 366.3 142.57 273.36"/><polygon class="cls-4" points="342.18 339.89 392.87 339.89 342.18 407.49 384.43 407.49 291.49 517.32 325.28 432.83 291.49 432.83 342.18 339.89"/></svg>