<svg id="Layer_1" data-name="Layer 1" xmlns="http://www.w3.org/2000/svg" viewBox="0 0 500.6 506.13"><defs><style>.cls-1{fill:#26477a;}.cls-2{fill:#3571aa;}</style></defs><g id="_1" data-name="1"><path class="cls-1" d="M332.31,636.41l-4.05,2.93-.09.06h0a21.18,21.18,0,1,0,35.46,18.49h0l.09-5.1.69-39.67Z" transform="translate(-249.59 -245.6)"/><path class="cls-1" d="M598.45,642.75l-4.05,2.93-.09.06h0A21.19,21.19,0,1,0,627.59,671a21,21,0,0,0,2.19-6.77h0l.09-5.11.69-39.66Z" transform="translate(-249.59 -245.6)"/><path class="cls-2" d="M462.21,677.23l-4,2.93-.09.06h0a21.18,21.18,0,1,0,35.46,18.49h0l.09-5.1.69-39.67Z" transform="translate(-249.59 -245.6)"/><path class="cls-2" d="M424.19,588.88l-4.05,2.94-.09.06h0a21.18,21.18,0,1,0,35.46,18.49h0l.09-5.11.69-39.66Z" transform="translate(-249.59 -245.6)"/><path class="cls-2" d="M662,585.71l-2.4,1.73,0,0h0a12.52,12.52,0,1,0,21,10.94h0l.06-3,.41-23.46Z" transform="translate(-249.59 -245.6)"/><path class="cls-2" d="M303.93,582.54l-2.4,1.73,0,0h0a12.53,12.53,0,1,0,19.67,14.94,12.75,12.75,0,0,0,1.3-4h0l.05-3,.41-23.46Z" transform="translate(-249.59 -245.6)"/><path class="cls-2" d="M535.21,728.28,532.82,730l-.05,0h0a12.77,12.77,0,0,0-2.54,3.35A12.53,12.53,0,0,0,552.45,745a12.4,12.4,0,0,0,1.29-4h0l0-3,.41-23.46Z" transform="translate(-249.59 -245.6)"/><path class="cls-2" d="M395.81,728.28l-2.4,1.74-.05,0h0a12.35,12.35,0,0,0-2.54,3.35A12.52,12.52,0,1,0,414.34,741h0l.06-3,.41-23.46Z" transform="translate(-249.59 -245.6)"/><path class="cls-1" d="M528.74,588.88l-4,2.94-.08.06h0a21.18,21.18,0,1,0,35.46,18.49h0l.08-5.11.7-39.66Z" transform="translate(-249.59 -245.6)"/><path class="cls-1" d="M685.24,413.52h-2a80.8,80.8,0,0,0-128.81-85.94,104.55,104.55,0,0,0-204.71,42.56A87.13,87.13,0,0,0,294.4,532.45a64.43,64.43,0,0,0,36,11H685.24a65.14,65.14,0,0,0,65-64.95h0A65.15,65.15,0,0,0,685.24,413.52Z" transform="translate(-249.59 -245.6)"/></g></svg>