<svg id="Layer_1" data-name="Layer 1" xmlns="http://www.w3.org/2000/svg" viewBox="0 0 475.97 475.97"><defs><style>.cls-1{fill:#ffb544;}.cls-2{fill:#ffae46;stroke:#ffae46;stroke-miterlimit:10;}</style></defs><path class="cls-1" d="M618.93,494.56A115.1,115.1,0,1,1,503.76,379.39,114.59,114.59,0,0,1,618.93,494.56Z" transform="translate(-261.09 -260.76)"/><path class="cls-2" d="M503.76,364.62h0a3,3,0,0,1-3-2.95V264.21a3,3,0,0,1,3-2.95h0a3,3,0,0,1,2.95,2.95v97.46A3,3,0,0,1,503.76,364.62Z" transform="translate(-261.09 -260.76)"/><path class="cls-2" d="M449.37,370.37h0a3,3,0,0,1-4-1.37l-22.48-46.37a3,3,0,0,1,1.38-4h0a3,3,0,0,1,4,1.38l22.47,46.37A3,3,0,0,1,449.37,370.37Z" transform="translate(-261.09 -260.76)"/><path class="cls-2" d="M585.22,677.51h0a3,3,0,0,1-4-1.38l-22.47-46.37a3,3,0,0,1,1.37-4h0a3,3,0,0,1,4,1.37l22.48,46.37A3,3,0,0,1,585.22,677.51Z" transform="translate(-261.09 -260.76)"/><path class="cls-2" d="M553,368.61h0a3,3,0,0,1-1.83-3.77L568,316.15a3,3,0,0,1,3.78-1.82h0a3,3,0,0,1,1.83,3.77l-16.9,48.68A3,3,0,0,1,553,368.61Z" transform="translate(-261.09 -260.76)"/><path class="cls-2" d="M431.83,681.84h0a3,3,0,0,1-1.83-3.77l16.9-48.68a3,3,0,0,1,3.77-1.83h0a3,3,0,0,1,1.83,3.77L435.6,680A3,3,0,0,1,431.83,681.84Z" transform="translate(-261.09 -260.76)"/><path class="cls-2" d="M632.47,439.74h0a3,3,0,0,1,1.38-4l46.37-22.48a3,3,0,0,1,4,1.38h0a3,3,0,0,1-1.37,4l-46.38,22.47A3,3,0,0,1,632.47,439.74Z" transform="translate(-261.09 -260.76)"/><path class="cls-2" d="M325.34,575.59h0a3,3,0,0,1,1.37-4l46.38-22.48a3,3,0,0,1,4,1.37h0a3,3,0,0,1-1.38,4L329.3,577A3,3,0,0,1,325.34,575.59Z" transform="translate(-261.09 -260.76)"/><path class="cls-2" d="M634.24,549.22h0a3,3,0,0,1,3.77-1.83l48.68,16.9a3,3,0,0,1,1.83,3.77h0a3,3,0,0,1-3.77,1.83L636.06,553A3,3,0,0,1,634.24,549.22Z" transform="translate(-261.09 -260.76)"/><path class="cls-2" d="M321,428.11h0a3,3,0,0,1,3.77-1.83l48.69,16.89a3,3,0,0,1,1.83,3.78h0a3,3,0,0,1-3.78,1.83l-48.68-16.9A3,3,0,0,1,321,428.11Z" transform="translate(-261.09 -260.76)"/><path class="cls-2" d="M503.76,736.73V639.27a3,3,0,0,1,2.95-2.95h0a3,3,0,0,1,3,2.95v97.46" transform="translate(-261.09 -260.76)"/><path class="cls-2" d="M737.06,497.52H639.6a3,3,0,0,1-3-3h0a3,3,0,0,1,3-2.95h97.46" transform="translate(-261.09 -260.76)"/><path class="cls-2" d="M261.59,497.52h0a3,3,0,0,1,3-3H362a3,3,0,0,1,3,3h0a3,3,0,0,1-3,3H264.55A3,3,0,0,1,261.59,497.52Z" transform="translate(-261.09 -260.76)"/><path class="cls-2" d="M600.86,594h0a3,3,0,0,1,4.18,0L674,662.92a3,3,0,0,1,0,4.18h0a3,3,0,0,1-4.18,0l-68.91-68.92A3,3,0,0,1,600.86,594Z" transform="translate(-261.09 -260.76)"/><path class="cls-2" d="M333.57,330.89h0a3,3,0,0,1,4.17,0l68.91,68.91a3,3,0,0,1,0,4.18h0a3,3,0,0,1-4.17,0l-68.91-68.91A3,3,0,0,1,333.57,330.89Z" transform="translate(-261.09 -260.76)"/><path class="cls-2" d="M405.79,593.14h0a3,3,0,0,1,0,4.18l-68.91,68.91a3,3,0,0,1-4.18,0h0a3,3,0,0,1,0-4.18l68.91-68.91A3,3,0,0,1,405.79,593.14Z" transform="translate(-261.09 -260.76)"/><path class="cls-2" d="M668.91,325.85h0a3,3,0,0,1,0,4.18L600,398.94a3,3,0,0,1-4.17,0h0a3,3,0,0,1,0-4.18l68.91-68.91A3,3,0,0,1,668.91,325.85Z" transform="translate(-261.09 -260.76)"/></svg>