<svg id="Layer_1" data-name="Layer 1" xmlns="http://www.w3.org/2000/svg" viewBox="0 0 505.77 420.08"><defs><style>.cls-1{fill:#6b99d2;}.cls-2{fill:#26477a;}</style></defs><g id="_16" data-name="16"><path class="cls-1" d="M620.9,477.78h-1.7a69.62,69.62,0,0,0-111-74A90.09,90.09,0,0,0,331.8,440.4a75.08,75.08,0,0,0-47.69,139.86,55.51,55.51,0,0,0,31,9.46H620.9a56.13,56.13,0,0,0,56-56h0A56.13,56.13,0,0,0,620.9,477.78Z" transform="translate(-245.51 -290.44)"/><path class="cls-2" d="M419,625.8c57.83-.94,115.69-.27,173.52.5,12.38.16,25.79-.67,38,1.45,18.11,3.13,31.35,21.71,17.72,38.89-10,12.57-39.21,8.41-35.09-11.4,1.24-6-7.92-8.52-9.17-2.52-6,28.76,34.74,41.39,51.5,20.34a33.2,33.2,0,0,0,1.25-40.62c-8.82-12.43-23-14.65-37.43-15.27-66.56-2.82-133.75-2-200.33-.88-6.11.1-6.13,9.61,0,9.51Z" transform="translate(-245.51 -290.44)"/><path class="cls-2" d="M444.31,468.39c34.58.61,69.19.82,103.76-.24,15.43-.47,34.74.94,46.26-11,15.6-16.2,14.45-48.5-8.24-58.12-21.23-9-44.57,7.82-40.2,30.63,1.16,6,10.32,3.46,9.17-2.53-2.5-13,8.84-22.08,21.27-20.87,16.47,1.6,23.06,22.43,16.88,36-7,15.36-23.38,15.71-38,16.17-36.95,1.16-73.91,1.13-110.87.48-6.12-.11-6.12,9.4,0,9.51Z" transform="translate(-245.51 -290.44)"/><path class="cls-2" d="M505.24,362.3c34.58.61,69.2.83,103.77-.23,15.42-.48,34.74.93,46.25-11,15.6-16.21,14.45-48.51-8.23-58.13-21.23-9-44.58,7.82-40.2,30.63,1.15,6,10.31,3.46,9.16-2.52-2.49-13,8.84-22.09,21.27-20.88,16.47,1.61,23.07,22.44,16.89,36-7,15.36-23.38,15.71-38,16.17-37,1.16-73.9,1.13-110.87.48-6.12-.11-6.12,9.39,0,9.5Z" transform="translate(-245.51 -290.44)"/><path class="cls-2" d="M590.44,505.62c25.76.5,81.48,11.09,97.61-16.1,9.44-15.92,2.59-41.42-17.19-45.14C653.07,441,638,454.82,641.19,472.59c1.09,6,10.25,3.47,9.17-2.52-4.74-26.17,45.86-17.88,30.26,13.43-6.47,13-21.07,13.33-33.66,13.88-18.73.81-37.79-.9-56.52-1.26-6.12-.12-6.12,9.39,0,9.5Z" transform="translate(-245.51 -290.44)"/><path class="cls-2" d="M316.42,657.17q55-.82,110,.38c11.43.26,25.44-.51,34.29,7.76,11.68,10.9,7.23,31.16-8.53,35.09-10.66,2.66-28-2.71-25-16.48,1.31-6-7.85-8.51-9.17-2.53-4.91,22.32,21,33.82,39.59,27.32,22.89-8,25.56-39.75,6.37-53.29-12.38-8.74-30.07-7.2-44.65-7.58-34.29-.87-68.6-.69-102.89-.17-6.11.09-6.13,9.59,0,9.5Z" transform="translate(-245.51 -290.44)"/><path class="cls-2" d="M454.29,561.37c66.79-1,133.64-.2,200.44.4,15.71.15,31.44.19,47.15.47,14.47.26,33.48.74,38.86,17.3,11.4,35.11-44.94,34.84-39.61,10.16,1.29-6-7.87-8.51-9.17-2.52-5.55,25.69,28.38,38.14,46.94,24.25,10.44-7.81,15.37-24.14,10.47-36.25-5.59-13.81-17.7-19.62-31.7-21.48-14.63-1.94-30-1.11-44.73-1.26q-50.76-.5-101.53-.77c-39-.2-78.09-.42-117.12.2-6.11.09-6.13,9.6,0,9.5Z" transform="translate(-245.51 -290.44)"/></g></svg>